<svg xmlns="http://www.w3.org/2000/svg" data-name="Calque 1" width="950.97998046875" height="250.75" style=""><rect id="backgroundrect" width="100%" height="100%" x="0" y="0" fill="none" stroke="none"/><defs><filter id="f001" xmlns:inkscape="http://www.inkscape.org/namespaces/inkscape" inkscape:label="Matte jelly" x="0" y="0" width="1" height="1" inkscape:menu="ABCs" inkscape:menu-tooltip="Bulging, matte jelly covering" color-interpolation-filters="sRGB">
            <feColorMatrix values="1 0 0 0 0 0 1 0 0 0 0 0 1 0 0 0 0 0 0.85 0" result="result0" in="SourceGraphic"/>
            <feGaussianBlur in="SourceAlpha" stdDeviation="7"/>
            <feSpecularLighting surfaceScale="5" specularConstant=".9" specularExponent="25">
                <feDistantLight elevation="60" azimuth="225"/>
            </feSpecularLighting>
            <feComposite operator="atop" in2="result0"/>
        </filter></defs><title>Objet dynamique vectoriel</title><g class="currentLayer" style=""><title>Layer 1</title><polygon class="cls-1" points="110.35934543609619,27.940000534057617 110.35934543609619,0 78.47934055328369,0 29.24934482574463,0 1.6393442153930664,0 1.6393442153930664,27.940000534057617 1.6393442153930664,67.12999725341797 29.24934482574463,67.12999725341797 29.24934482574463,27.940000534057617 78.47934055328369,27.940000534057617 78.47934055328369,223.13999938964844 40.25934314727783,223.13999938964844 40.25934314727783,250.75 78.47934055328369,250.75 110.35934543609619,250.75 148.57934665679932,250.75 148.57934665679932,223.13999938964844 110.35934543609619,223.13999938964844 110.35934543609619,27.940000534057617 " id="svg_1" fill="#ffffff" fill-opacity="1" stroke="#dadada" stroke-opacity="1"/><polygon class="cls-1" points="272.27 0 272.27 27.77 390.71 27.77 390.71 107.93 281.74 107.93 281.74 135.54 390.71 135.54 390.71 223.14 272.27 223.14 272.27 250.75 390.71 250.75 422.59 250.75 422.59 223.14 422.59 135.54 422.59 107.93 422.59 27.77 422.59 0 390.71 0 272.27 0" id="svg_2" fill="#ffffff" fill-opacity="1"/><polygon class="cls-1" points="535.53 0 535.53 27.77 653.97 27.77 653.97 107.93 545 107.93 545 135.54 653.97 135.54 653.97 223.14 535.53 223.14 535.53 250.75 653.97 250.75 685.85 250.75 685.85 223.14 685.85 135.54 685.85 107.93 685.85 27.77 685.85 0 653.97 0 535.53 0" id="svg_3" fill="#ffffff" fill-opacity="1"/><polygon class="cls-1" points="919.1099853515625,1.6393442153930664 791.52001953125,1.6393442153930664 791.52001953125,1.809344232082367 791.52001953125,29.40934467315674 791.52001953125,90.45934391021729 819.1199951171875,90.45934391021729 819.1199951171875,29.40934467315674 919.1099853515625,29.40934467315674 919.1099853515625,252.38934421539307 950.97998046875,252.38934421539307 950.97998046875,29.40934467315674 950.97998046875,1.6393442153930664 919.1099853515625,1.6393442153930664 " id="svg_4" fill="#ffffff" fill-opacity="1" filter="url(#f001)"/></g></svg>